<svg version="1.1" id="Layer_1" xmlns="http://www.w3.org/2000/svg" xmlns:xlink="http://www.w3.org/1999/xlink" x="0px" y="0px"
	 width="100%" viewBox="0 0 500 500" enable-background="new 0 0 500 500" xml:space="preserve">
<path fill="#000000" opacity="1.000000" stroke="none" 
	d="
M237.000000,501.000000 
	C159.333359,501.000000 82.166656,500.970947 5.000211,501.096161 
	C1.575914,501.101715 0.903036,500.423828 0.905301,497.000000 
	C1.013779,333.000092 1.013772,169.000122 0.905334,5.000237 
	C0.903070,1.576915 1.575823,0.903022 4.999886,0.905287 
	C168.999771,1.013774 332.999725,1.013761 496.999634,0.905352 
	C500.422668,0.903090 501.096985,1.575447 501.094727,4.999767 
	C500.986206,168.999649 500.986237,332.999603 501.094604,496.999512 
	C501.096893,500.422272 500.425415,501.100769 497.000305,501.095917 
	C410.500305,500.974030 324.000153,501.000000 237.000000,501.000000 
z"/>
<path fill="#FEFEFE" opacity="1.000000" stroke="none" 
	d="
M163.814697,421.528748 
	C158.267059,433.306427 148.080154,439.776245 136.867050,438.942657 
	C124.041061,437.989136 112.330582,429.352997 109.011375,417.556335 
	C98.855911,381.463074 88.945145,345.300873 78.975838,309.155396 
	C69.839569,276.030243 61.144691,242.776016 51.443531,209.817627 
	C47.670284,196.998520 55.109863,180.271729 69.472435,176.214218 
	C84.771233,171.892242 99.702034,179.722900 103.973389,194.992538 
	C114.119423,231.263519 124.029945,267.600372 134.042114,303.908844 
	C134.560501,305.788666 135.139206,307.651855 136.119736,310.983551 
	C138.939697,300.397888 141.432434,291.215698 143.826080,282.007721 
	C146.402893,272.095123 148.837402,262.145355 151.442657,252.240387 
	C152.184570,249.419632 152.186188,246.791336 151.380905,243.945999 
	C148.097092,232.343246 144.976166,220.693817 141.862534,209.043594 
	C136.527603,189.081909 153.840973,171.088669 173.911118,175.900543 
	C177.909927,176.859253 181.457245,176.863815 185.470688,175.756256 
	C205.397156,170.257294 223.466797,187.310028 219.030594,207.497681 
	C216.266403,220.076462 212.825333,232.507919 209.585388,244.978821 
	C209.196457,246.475861 208.898636,247.841522 209.315384,249.349380 
	C214.332336,267.501892 219.328720,285.660065 224.365524,303.807037 
	C224.531113,304.403687 225.068130,304.897217 225.522217,305.573090 
	C235.315399,268.690948 244.973633,231.996353 254.833588,195.356033 
	C258.325012,182.381607 268.236237,174.839951 280.888580,174.863266 
	C298.416626,174.895569 308.068756,181.049301 312.086945,195.454315 
	C325.490448,243.505386 338.733276,291.601288 352.016083,339.685974 
	C357.821411,360.701660 363.592072,381.726959 369.345032,402.757050 
	C373.511383,417.987244 365.543304,432.480408 350.680756,436.804016 
	C336.091064,441.048248 321.412781,432.653839 316.991241,417.472076 
	C315.513000,412.396301 314.235443,407.262421 312.815033,402.169373 
	C311.408447,397.125885 309.937500,392.100372 308.088257,387.039124 
	C307.239258,394.287415 306.384918,401.488922 304.022766,408.378113 
	C297.948547,426.093475 287.647614,439.683350 268.839752,445.478394 
	C260.800018,447.955536 253.396820,445.735138 245.891296,443.759613 
	C237.894089,441.654694 229.957581,439.376953 221.758179,438.099670 
	C209.392441,436.173370 202.133408,428.703918 198.938019,416.787872 
	C193.632431,397.002594 188.187119,377.254730 182.772980,357.498688 
	C182.486313,356.452667 181.943085,355.477020 181.374542,354.124176 
	C175.494888,376.717773 169.712677,398.936981 163.814697,421.528748 
z"/>
<path fill="#040404" opacity="1.000000" stroke="none" 
	d="
M265.026978,374.833252 
	C273.620239,376.729340 279.929169,381.242950 284.143158,388.464325 
	C288.977386,396.748627 287.062592,405.806549 279.229675,411.189728 
	C272.145233,416.058594 264.245514,416.869568 255.949402,415.046326 
	C254.226151,414.667633 253.651932,413.783447 254.130859,412.256317 
	C258.014923,399.871429 259.966370,386.946259 265.026978,374.833252 
z"/>
<path fill="#060606" opacity="1.000000" stroke="none" 
	d="
M275.097931,331.098694 
	C277.956238,320.348541 280.746979,310.008545 283.537750,299.668579 
	C283.834534,299.602051 284.131348,299.535522 284.428162,299.468994 
	C289.816223,319.097961 295.204315,338.726929 300.592377,358.355865 
	C294.098358,349.993500 286.489075,344.400848 276.209534,342.805939 
	C273.007660,342.309174 272.281494,340.643982 273.342133,337.711945 
	C274.068726,335.703491 274.478821,333.580566 275.097931,331.098694 
z"/>
</svg>